<?xml version="1.0" standalone="no"?>
<!DOCTYPE svg PUBLIC "-//W3C//DTD SVG 20010904//EN"
 "http://www.w3.org/TR/2001/REC-SVG-20010904/DTD/svg10.dtd">
<svg version="1.0" xmlns="http://www.w3.org/2000/svg"
 width="1031.000000pt" height="1033.000000pt" viewBox="0 0 1031.000000 1033.000000"
 preserveAspectRatio="xMidYMid meet">

<g transform="translate(0.000000,1033.000000) scale(0.100000,-0.100000)"
fill="#000000" stroke="none">
<path d="M0 5165 l0 -5165 5155 0 5155 0 0 5165 0 5165 -5155 0 -5155 0 0
-5165z m6580 5128 c61 -12 103 -30 219 -96 137 -78 148 -87 231 -182 164 -188
266 -343 344 -520 43 -100 111 -336 125 -435 19 -139 22 -412 5 -513 -21 -121
-77 -285 -128 -371 -63 -108 -190 -235 -284 -285 l-77 -40 50 0 c28 0 70 4 95
9 47 9 251 -21 605 -90 83 -16 188 -34 234 -41 108 -17 131 -34 131 -98 0 -36
5 -53 21 -67 28 -25 49 -67 49 -97 0 -13 9 -32 20 -42 18 -17 20 -30 19 -159
0 -78 -4 -222 -8 -320 l-8 -179 -66 -61 c-36 -34 -69 -71 -72 -84 -8 -27 -64
-66 -122 -84 -24 -7 -43 -18 -43 -24 0 -6 -12 -21 -26 -35 -21 -19 -39 -25
-97 -29 l-72 -5 -3 -37 c-4 -43 -49 -87 -110 -107 -31 -10 -301 -70 -509 -113
-29 -6 -53 -14 -53 -19 0 -4 17 -13 38 -19 68 -22 72 -31 72 -145 0 -80 -3
-105 -15 -115 -14 -12 -14 -15 1 -31 15 -17 15 -42 6 -275 -8 -187 -15 -261
-24 -270 -7 -7 -103 -24 -213 -39 -110 -14 -209 -28 -221 -30 l-21 -5 -6 -781
c-4 -430 -7 -1164 -7 -1630 0 -828 0 -849 19 -859 11 -5 37 -10 58 -10 53 -1
111 -30 153 -76 20 -21 69 -59 110 -83 41 -24 87 -55 103 -69 26 -25 27 -28
27 -139 l0 -113 -30 -19 -30 -18 91 -79 c51 -43 105 -89 121 -102 26 -22 28
-28 28 -102 0 -60 -4 -81 -17 -91 -9 -8 -68 -25 -132 -39 -109 -24 -116 -27
-119 -50 -2 -20 6 -33 38 -58 l40 -33 0 -168 c0 -196 4 -188 -105 -217 -45
-12 -77 -27 -90 -42 -22 -25 -11 -22 -525 -142 -124 -29 -290 -67 -369 -86
-132 -31 -149 -33 -200 -23 -61 13 -40 17 -570 -107 -107 -25 -217 -48 -246
-51 -57 -6 -34 -19 -465 267 l-155 103 -137 -28 c-75 -15 -147 -26 -160 -23
-24 5 -555 355 -574 379 -7 8 -15 53 -19 100 l-7 86 144 173 c79 95 200 242
270 327 l127 153 -37 23 c-20 13 -76 47 -124 77 -48 29 -94 60 -102 69 -8 10
-16 52 -21 113 -9 128 -10 127 170 161 75 14 140 29 143 32 5 5 -43 2230 -65
2976 l-6 216 -156 41 c-86 22 -192 48 -236 58 -131 29 -125 15 -125 294 0 270
-1 265 88 285 47 10 45 11 -238 83 -157 40 -294 77 -305 82 -11 5 -74 23 -140
40 -66 17 -157 43 -203 56 l-83 26 -71 -22 c-111 -34 -169 -23 -255 46 -72 57
-78 60 -88 44 -8 -12 -115 -13 -134 -1 -12 8 -32 4 -163 -30 -26 -7 -38 -15
-38 -27 0 -9 -10 -45 -22 -79 -32 -91 -66 -120 -169 -143 -46 -10 -196 -44
-334 -75 -137 -31 -322 -72 -410 -91 -88 -19 -202 -46 -253 -59 -142 -38 -167
-35 -233 24 -122 109 -189 328 -154 504 14 69 22 88 53 120 50 52 90 71 197
91 50 10 194 39 320 66 127 26 341 72 478 100 167 35 258 50 281 46 24 -5 57
-29 110 -80 l77 -74 87 19 c66 15 93 26 117 48 16 16 53 37 82 47 42 15 54 24
58 46 8 34 65 109 102 133 15 11 61 26 102 35 l74 16 12 48 c14 56 71 119 118
133 l32 9 5 189 5 190 43 23 42 23 0 68 c0 53 4 72 18 84 13 12 116 33 353 72
184 31 424 71 534 90 110 18 280 46 377 61 98 15 183 31 189 34 7 5 6 25 -5
68 -25 96 -25 167 0 192 29 29 159 65 282 79 114 12 146 6 164 -34 7 -16 17
-24 27 -21 9 3 35 7 57 11 34 5 66 26 163 107 116 96 121 101 121 138 0 27 8
48 26 69 22 27 33 31 72 31 36 0 50 5 59 19 7 11 23 21 35 24 17 3 15 5 -9 6
-22 1 -46 13 -73 37 -38 35 -40 39 -40 98 0 51 -5 68 -31 106 -23 34 -30 53
-26 80 3 27 -5 47 -35 94 -21 32 -38 63 -38 67 0 5 -18 12 -40 15 -23 4 -52
15 -65 26 -37 29 -35 92 4 146 16 22 34 43 39 46 5 3 40 56 78 117 38 61 93
137 122 170 76 84 106 91 354 86 106 -2 203 -7 214 -11 20 -7 24 -1 49 76 55
165 213 352 353 418 100 47 206 80 307 95 96 14 156 12 275 -12z"/>
<path d="M6320 10270 c-78 -8 -198 -45 -310 -97 -134 -62 -264 -220 -333 -403
-34 -92 -36 -95 -64 -92 -94 11 -421 12 -462 2 -63 -16 -108 -62 -198 -205
-42 -66 -88 -133 -103 -150 -85 -94 -79 -150 19 -157 44 -3 45 -4 77 -66 17
-35 42 -74 54 -87 20 -21 21 -25 6 -47 -14 -22 -14 -26 7 -58 43 -66 47 -76
47 -132 0 -49 4 -61 27 -83 31 -28 38 -29 81 -14 40 14 72 -2 72 -36 0 -27
-25 -45 -63 -45 -13 0 -33 -11 -45 -25 -18 -20 -31 -25 -71 -25 -58 0 -68 -10
-78 -77 -8 -48 -11 -53 -103 -127 -52 -43 -110 -89 -127 -103 -23 -17 -57 -30
-110 -39 -99 -17 -95 -17 -89 4 4 11 -1 25 -13 36 -16 15 -28 16 -107 6 -49
-5 -129 -20 -177 -31 -71 -17 -90 -26 -97 -44 -8 -22 11 -162 30 -218 8 -24 6
-29 -13 -37 -12 -5 -148 -30 -302 -55 -154 -25 -401 -66 -550 -90 -148 -25
-341 -56 -428 -70 -87 -15 -165 -29 -173 -32 -10 -4 -14 -24 -14 -78 l0 -74
-42 -23 c-43 -23 -43 -24 -51 -93 -4 -39 -5 -120 -2 -180 6 -123 3 -133 -55
-155 -63 -24 -100 -71 -100 -129 0 -38 -27 -56 -95 -66 -107 -14 -148 -47
-201 -159 -16 -34 -27 -42 -74 -58 -30 -10 -68 -32 -85 -48 -26 -25 -48 -34
-130 -49 l-98 -20 -73 75 c-41 40 -85 76 -99 80 -26 6 -150 -16 -550 -101
-116 -24 -298 -63 -405 -85 -107 -23 -209 -45 -226 -51 -106 -33 -149 -189
-104 -377 25 -102 59 -171 116 -232 51 -54 91 -66 159 -44 22 7 141 35 265 63
414 93 664 149 770 172 58 12 110 26 117 31 16 13 63 137 63 168 0 14 4 30 8
36 4 6 55 21 114 33 87 19 112 22 139 12 40 -14 86 -14 94 -1 15 24 60 8 126
-45 65 -53 70 -55 127 -55 32 0 84 9 114 19 l55 19 169 -44 c93 -24 205 -55
249 -69 71 -22 205 -57 628 -166 70 -17 125 -34 122 -37 -2 -3 -55 -17 -117
-32 l-113 -26 0 -234 0 -233 105 -28 c58 -16 168 -43 245 -60 77 -17 145 -35
151 -40 7 -6 13 -114 18 -316 3 -170 13 -580 21 -913 8 -333 19 -843 25 -1135
5 -291 13 -611 16 -711 l7 -180 -159 -35 -159 -34 -3 -87 -3 -87 68 -44 c37
-24 106 -68 153 -97 47 -29 87 -54 89 -56 2 -2 -18 -25 -45 -51 -27 -27 -154
-175 -282 -330 l-232 -282 0 -78 0 -78 270 -179 c148 -98 280 -181 293 -183
13 -3 85 7 161 22 l137 26 289 -191 290 -191 207 46 c115 25 243 55 286 66 42
11 129 30 192 44 99 21 122 23 168 13 51 -11 68 -8 248 35 169 40 306 72 726
169 78 18 93 25 97 44 5 19 19 25 87 40 44 9 82 22 84 28 2 6 5 78 8 159 l4
149 -38 25 c-39 26 -43 32 -53 94 l-6 35 140 34 140 33 0 66 0 67 -112 94
c-132 111 -158 136 -158 148 0 11 34 22 68 22 21 0 22 3 22 108 l0 107 -95 55
c-53 30 -108 71 -124 91 -36 44 -86 69 -138 69 -21 0 -54 8 -73 19 l-35 18 4
1654 c2 910 5 1656 7 1658 6 7 373 60 415 61 20 0 41 6 47 13 7 8 14 108 18
252 l7 240 -24 10 c-30 13 -31 37 -1 50 20 9 22 16 22 97 0 49 0 91 0 96 0 8
-82 43 -148 64 -24 7 -44 18 -44 23 0 6 24 16 54 22 142 33 385 86 491 108 65
13 138 33 161 45 46 22 56 43 56 115 0 18 7 38 15 45 12 10 15 10 15 -3 0 -11
14 -16 58 -19 67 -5 102 11 102 46 0 24 16 36 48 36 9 0 41 11 70 25 36 17 52
30 52 44 0 11 28 44 69 80 l69 61 6 163 c15 422 15 456 -5 462 -11 4 -21 17
-24 31 -3 13 -7 35 -10 49 -3 13 -19 40 -35 59 -24 27 -30 43 -30 79 0 45 -1
47 -37 56 -21 6 -108 22 -193 36 -85 14 -234 41 -330 60 -240 47 -319 55 -395
44 -62 -10 -231 1 -256 17 -6 4 20 17 58 29 117 37 212 96 295 184 87 91 117
138 170 270 74 182 97 437 64 703 -28 221 -117 470 -244 683 -50 82 -180 249
-255 326 -73 75 -284 200 -376 223 -75 19 -180 25 -271 16z m-1112 -1236 c12
-21 3 -64 -14 -71 -21 -8 -44 16 -44 47 0 14 3 30 7 33 12 13 42 7 51 -9z
m190 -6 c7 -7 12 -21 12 -33 0 -12 -5 -26 -12 -33 -7 -7 -21 -12 -33 -12 -12
0 -26 5 -33 12 -7 7 -12 21 -12 33 0 12 5 26 12 33 7 7 21 12 33 12 12 0 26
-5 33 -12z m-109 -175 c20 2 44 7 55 12 29 13 16 -27 -14 -43 -50 -26 -150 3
-150 44 0 10 8 10 37 -2 20 -9 53 -14 72 -11z"/>
</g>
</svg>
