<?xml version="1.0" standalone="no"?>
<!DOCTYPE svg PUBLIC "-//W3C//DTD SVG 20010904//EN"
 "http://www.w3.org/TR/2001/REC-SVG-20010904/DTD/svg10.dtd">
<svg version="1.0" xmlns="http://www.w3.org/2000/svg"
 width="900.000000pt" height="903.000000pt" viewBox="0 0 900.000000 903.000000"
 preserveAspectRatio="xMidYMid meet">
<metadata>
Created by potrace 1.10, written by Peter Selinger 2001-2011
</metadata>
<g transform="translate(0.000000,903.000000) scale(0.100000,-0.100000)"
fill="#000000" stroke="none">
<path d="M5470 8961 c-30 -3 -65 -12 -77 -19 -12 -7 -31 -12 -42 -12 -10 0
-32 -6 -48 -14 -15 -8 -48 -24 -72 -35 -119 -54 -255 -227 -291 -370 -5 -19
-17 -42 -27 -52 -16 -16 -24 -17 -58 -8 -25 7 -106 10 -219 7 l-180 -4 -58
-63 c-32 -35 -58 -68 -58 -72 0 -5 -20 -38 -45 -75 -25 -36 -45 -69 -45 -73 0
-4 -13 -20 -29 -35 -16 -16 -35 -42 -42 -59 -12 -28 -11 -32 15 -53 15 -14 40
-24 57 -24 25 0 33 -6 47 -38 9 -20 28 -52 41 -70 17 -25 22 -41 17 -64 -5
-24 0 -39 19 -64 19 -25 25 -45 25 -86 1 -75 21 -96 96 -100 53 -3 59 -5 62
-26 3 -18 -5 -26 -43 -42 -25 -11 -53 -27 -61 -35 -9 -8 -33 -15 -53 -15 -46
0 -58 -13 -63 -65 -3 -35 -11 -45 -68 -93 -151 -124 -166 -133 -226 -141 -50
-7 -59 -6 -73 12 -36 44 -40 46 -73 36 -18 -5 -67 -13 -108 -18 -41 -5 -91
-14 -110 -21 -19 -7 -41 -14 -47 -16 -18 -5 -17 -116 2 -161 31 -74 16 -88
-110 -103 -95 -11 -197 -28 -275 -46 -36 -8 -84 -14 -108 -14 -24 0 -52 -5
-62 -10 -11 -6 -56 -15 -102 -20 -46 -5 -108 -14 -138 -20 -132 -26 -169 -32
-235 -40 -38 -5 -86 -13 -105 -19 -19 -6 -56 -11 -83 -11 -43 0 -49 -3 -58
-27 -6 -15 -9 -43 -9 -63 3 -54 2 -55 -40 -79 l-40 -22 0 -159 c0 -167 -6
-189 -48 -190 -32 -1 -70 -44 -85 -95 -13 -45 -18 -52 -58 -67 -24 -9 -56 -17
-72 -17 -36 -1 -115 -79 -124 -121 -6 -31 -32 -51 -84 -63 -14 -4 -37 -17 -51
-31 -34 -31 -109 -56 -169 -56 -44 0 -50 3 -108 62 l-61 62 -63 -2 c-35 -1
-82 -8 -106 -17 -24 -8 -56 -15 -72 -15 -15 0 -40 -5 -56 -11 -15 -6 -53 -15
-83 -19 -30 -4 -76 -12 -102 -19 -27 -6 -69 -16 -95 -22 -27 -7 -70 -15 -98
-19 -27 -4 -63 -12 -78 -18 -16 -7 -43 -12 -61 -12 -19 0 -53 -7 -76 -15 -23
-8 -54 -15 -69 -15 -53 0 -125 -36 -159 -80 -34 -44 -38 -69 -33 -200 3 -66
29 -162 50 -183 6 -6 11 -16 11 -23 0 -6 21 -35 46 -63 42 -47 49 -51 91 -51
25 0 66 6 92 14 25 8 82 22 126 31 76 16 126 27 240 55 28 7 70 16 95 20 25 4
68 13 95 20 28 6 75 18 105 25 30 7 78 19 105 25 28 7 73 16 100 20 28 5 59
11 70 16 27 10 64 55 65 79 0 11 7 31 15 45 8 14 14 34 15 45 0 35 83 57 233
60 110 2 132 0 146 -14 72 -72 151 -97 209 -67 38 20 122 21 182 2 25 -8 72
-22 105 -31 33 -9 80 -22 105 -30 100 -29 158 -45 220 -60 36 -9 85 -23 110
-31 25 -8 53 -14 64 -14 10 0 40 -7 67 -15 27 -8 71 -22 98 -30 27 -8 58 -15
69 -15 26 0 52 -10 52 -20 0 -13 -78 -40 -115 -40 -60 0 -65 -19 -65 -227 l0
-183 33 -20 c17 -11 43 -20 56 -20 13 0 48 -7 78 -15 29 -8 77 -22 106 -30 30
-8 63 -15 74 -15 29 0 93 -28 98 -43 10 -30 25 -515 26 -867 1 -212 6 -416 10
-453 5 -38 14 -341 19 -675 6 -334 13 -657 16 -719 l7 -112 -29 -6 c-16 -3
-52 -12 -80 -20 -28 -8 -65 -15 -83 -15 -35 0 -90 -27 -92 -45 -3 -41 4 -121
13 -135 6 -9 33 -30 60 -46 28 -16 62 -37 77 -46 14 -10 35 -22 46 -27 11 -6
31 -19 44 -29 l24 -19 -68 -79 c-37 -44 -77 -90 -89 -104 -12 -14 -37 -45 -56
-70 -19 -25 -41 -52 -49 -61 -9 -9 -41 -47 -71 -84 -30 -38 -62 -76 -70 -84
-8 -9 -30 -35 -48 -58 -31 -39 -33 -46 -30 -110 l3 -67 235 -158 c219 -147
238 -158 282 -158 26 0 59 5 75 11 15 6 54 15 86 19 58 9 81 4 121 -22 380
-256 452 -299 481 -293 17 4 48 11 70 15 48 9 122 27 191 46 28 8 61 14 74 14
12 0 43 6 69 14 86 27 232 58 271 58 8 0 34 -4 58 -8 29 -4 63 -2 100 9 84 22
152 39 197 47 22 4 63 13 90 20 28 6 75 18 105 25 30 7 78 19 105 25 28 7 66
16 85 20 153 33 237 59 243 75 5 11 45 27 135 51 9 2 12 39 12 140 l0 138 -29
25 c-18 16 -32 40 -36 64 -6 36 -4 38 28 52 19 8 62 19 95 24 58 9 101 25 112
42 3 4 4 28 2 54 -4 45 -6 48 -118 142 -63 53 -114 102 -114 109 0 6 12 15 27
19 39 9 43 20 43 107 0 71 -2 79 -27 103 -15 14 -33 25 -39 25 -6 0 -30 14
-52 30 -23 17 -43 30 -45 30 -2 0 -25 20 -50 45 -43 41 -52 45 -96 45 -32 0
-56 6 -71 18 l-22 18 1 1439 c2 1620 -7 1465 80 1465 25 1 75 7 111 15 36 8
87 14 113 15 26 0 63 6 81 14 l33 14 6 203 c4 191 3 205 -14 221 -22 19 -25
46 -5 54 15 6 31 129 20 157 -7 20 -86 57 -120 57 -12 0 -26 5 -30 11 -12 20
22 40 82 49 32 4 72 13 87 19 16 6 40 11 54 11 15 0 49 6 77 14 28 8 87 22
131 31 184 38 225 64 225 142 0 33 14 51 25 33 3 -5 31 -10 60 -10 50 0 56 2
69 29 11 20 31 34 73 50 45 17 64 31 82 59 13 20 43 53 67 72 24 19 46 44 48
55 10 36 27 485 20 508 -3 12 -12 29 -18 37 -7 8 -18 33 -25 55 -7 22 -22 49
-32 61 -11 11 -22 38 -24 59 -7 51 -20 65 -65 65 -20 0 -59 7 -86 15 -27 8
-65 15 -85 15 -20 0 -56 7 -79 15 -23 8 -60 15 -81 15 -21 0 -58 6 -81 14 -24
8 -71 16 -106 20 -35 3 -71 10 -81 16 -11 5 -91 9 -187 7 -113 -1 -176 2 -189
10 -19 11 -18 12 10 19 61 15 172 74 226 121 59 51 121 118 132 143 4 8 16 30
28 49 36 60 83 203 98 299 21 139 12 390 -20 517 -6 22 -14 58 -19 80 -9 47
-27 99 -46 137 -8 14 -14 33 -14 41 0 33 -127 258 -198 351 -116 152 -165 200
-260 256 -48 28 -94 55 -102 60 -61 38 -105 49 -213 54 -62 2 -137 1 -167 -3z
m-942 -1070 c21 -13 11 -56 -13 -56 -20 0 -31 25 -21 51 6 16 15 17 34 5z
m172 -16 c20 -25 8 -50 -25 -50 -24 0 -31 5 -33 24 -6 37 34 55 58 26z m-41
-151 c13 -12 -19 -24 -63 -24 -48 0 -86 17 -71 32 5 4 127 -2 134 -8z"/>
</g>
</svg>
