<?xml version="1.0" standalone="no"?>
<!DOCTYPE svg PUBLIC "-//W3C//DTD SVG 20010904//EN"
 "http://www.w3.org/TR/2001/REC-SVG-20010904/DTD/svg10.dtd">
<svg version="1.0" xmlns="http://www.w3.org/2000/svg"
 width="900.000000pt" height="903.000000pt" viewBox="0 0 900.000000 903.000000"
 preserveAspectRatio="xMidYMid meet">
<metadata>
Created by potrace 1.10, written by Peter Selinger 2001-2011
</metadata>
<g transform="translate(0.000000,903.000000) scale(0.100000,-0.100000)"
fill="#000000" stroke="none">
<path d="M5500 9016 c0 -9 -18 -15 -58 -19 -32 -2 -67 -10 -78 -15 -10 -6 -36
-14 -56 -17 -21 -3 -38 -10 -38 -15 0 -6 -7 -10 -15 -10 -35 0 -106 -49 -182
-126 -46 -46 -83 -91 -83 -99 0 -8 -3 -15 -8 -15 -4 0 -18 -21 -31 -47 -13
-27 -29 -57 -34 -68 -6 -11 -13 -33 -16 -49 -7 -33 -40 -60 -48 -38 -6 15
-358 18 -368 2 -3 -5 -16 -10 -29 -10 -32 0 -135 -114 -198 -219 -29 -47 -63
-97 -76 -111 -44 -48 -64 -88 -57 -118 7 -33 55 -73 91 -77 28 -3 54 -22 54
-40 0 -7 9 -24 21 -39 16 -20 20 -35 15 -59 -5 -27 0 -41 24 -73 24 -32 29
-49 30 -92 0 -45 4 -57 28 -79 15 -14 37 -29 50 -34 33 -13 20 -26 -40 -39
-68 -14 -98 -42 -98 -90 0 -22 -7 -41 -18 -50 -10 -8 -40 -33 -67 -55 -28 -22
-59 -48 -70 -58 -27 -25 -94 -57 -120 -57 -11 0 -33 14 -48 31 l-28 32 -76 -7
c-42 -4 -84 -11 -94 -17 -10 -5 -33 -9 -51 -9 -18 0 -46 -7 -62 -15 -15 -8
-34 -15 -41 -15 -6 0 -20 -9 -31 -21 -15 -16 -18 -34 -17 -84 1 -35 6 -80 12
-100 9 -34 9 -36 -26 -50 -19 -8 -59 -15 -89 -15 -29 0 -73 -6 -96 -14 -24 -8
-76 -16 -117 -19 -41 -4 -79 -11 -85 -17 -5 -5 -33 -10 -60 -10 -28 0 -69 -5
-91 -11 -22 -6 -75 -15 -118 -20 -42 -5 -86 -13 -97 -19 -10 -5 -38 -10 -62
-10 -24 0 -61 -5 -83 -11 -22 -6 -78 -15 -125 -20 -47 -6 -89 -14 -94 -19 -6
-6 -29 -10 -53 -10 -33 0 -48 -6 -68 -27 -23 -24 -26 -34 -21 -71 6 -44 -8
-82 -30 -82 -31 0 -39 -34 -44 -193 l-5 -161 -26 -7 c-48 -12 -86 -59 -112
-140 -3 -9 -20 -19 -39 -22 -80 -14 -97 -20 -124 -46 -44 -41 -71 -76 -79
-102 -10 -29 -33 -48 -61 -49 -11 0 -33 -13 -48 -29 -19 -20 -42 -31 -72 -36
-24 -3 -46 -10 -49 -16 -14 -22 -62 -8 -96 27 -83 87 -150 119 -197 95 -15 -8
-41 -13 -199 -40 -28 -5 -66 -14 -85 -19 -41 -13 -122 -30 -208 -43 -36 -6
-69 -15 -75 -20 -5 -5 -26 -9 -47 -9 -20 0 -57 -6 -80 -14 -24 -8 -67 -16 -97
-20 -30 -3 -59 -10 -65 -16 -5 -5 -27 -10 -48 -10 -43 0 -115 -34 -141 -67
-10 -13 -26 -30 -35 -39 -15 -16 -33 -96 -33 -154 -1 -53 19 -182 30 -193 6
-6 11 -19 11 -28 0 -10 6 -24 14 -31 7 -8 16 -23 20 -34 3 -12 31 -46 62 -77
l55 -57 62 0 c35 0 74 7 91 15 15 8 41 15 56 15 15 0 50 6 76 14 67 20 138 35
209 47 32 5 64 14 69 19 6 6 26 10 45 10 20 1 54 7 76 15 22 8 52 15 67 15 15
0 45 6 65 14 21 8 60 17 87 20 27 3 54 10 60 15 6 4 36 11 66 14 30 3 69 13
86 23 37 21 74 72 74 102 0 11 4 23 9 26 4 3 11 18 14 33 9 43 50 56 191 57
l121 2 63 -48 c57 -43 68 -48 116 -48 30 0 60 6 72 15 25 19 123 19 160 0 16
-8 41 -15 55 -15 15 0 40 -7 55 -15 16 -8 41 -15 55 -15 15 0 40 -7 55 -15 16
-8 39 -15 50 -15 12 0 35 -7 50 -15 16 -8 43 -15 61 -15 17 0 34 -4 38 -9 3
-6 27 -13 53 -16 26 -4 61 -13 79 -21 17 -8 47 -14 66 -14 20 0 39 -4 42 -10
3 -5 28 -10 55 -10 55 0 75 -16 34 -26 -15 -4 -36 -16 -48 -28 -19 -19 -21
-34 -24 -199 -2 -98 -1 -193 2 -212 8 -41 57 -73 125 -82 25 -3 51 -10 57 -15
7 -5 36 -12 65 -15 29 -3 64 -12 78 -20 15 -7 42 -13 62 -13 22 0 42 -7 52
-18 18 -20 19 -26 35 -987 6 -330 15 -663 21 -740 6 -77 12 -345 14 -596 l3
-457 -58 -6 c-31 -4 -60 -11 -63 -16 -4 -6 -27 -10 -53 -10 -36 0 -52 -6 -74
-27 -26 -25 -28 -32 -28 -109 l0 -82 39 -33 c21 -19 77 -56 125 -84 47 -27 86
-52 86 -55 0 -3 -17 -23 -38 -46 -41 -45 -59 -66 -117 -139 -39 -48 -79 -96
-100 -119 -6 -6 -28 -33 -50 -61 -35 -44 -68 -82 -100 -119 -48 -55 -55 -75
-55 -159 l0 -85 58 -38 c31 -22 59 -41 62 -44 14 -14 70 -50 79 -50 5 0 11 -3
13 -7 4 -10 65 -53 74 -53 3 0 23 -14 44 -30 21 -17 41 -30 44 -30 4 0 12 -5
19 -10 7 -6 37 -27 67 -47 52 -33 58 -35 122 -30 37 2 74 9 81 16 18 14 145
19 155 6 10 -15 70 -55 81 -55 5 0 11 -3 13 -7 5 -11 66 -53 77 -53 5 0 11 -3
13 -7 5 -12 66 -53 78 -53 5 0 10 -4 10 -9 0 -5 10 -13 22 -17 12 -3 26 -10
32 -15 50 -42 61 -49 73 -49 7 0 13 -3 13 -8 0 -4 16 -16 35 -26 29 -16 41
-17 73 -8 56 16 130 32 196 43 33 5 64 13 70 18 6 4 35 11 65 14 29 4 58 10
65 15 6 5 35 12 65 15 29 4 60 12 68 18 9 8 60 13 152 13 85 1 143 5 152 12 8
6 38 14 68 17 30 4 59 11 65 17 5 5 25 10 43 10 18 0 50 6 70 14 40 14 114 31
199 45 28 5 60 13 70 19 11 5 41 12 68 16 27 3 54 10 60 15 6 4 35 11 65 14
30 4 59 11 65 17 5 5 17 10 26 10 8 1 31 14 50 30 22 20 45 30 67 30 19 0 42
9 57 22 24 22 25 28 27 163 3 152 -2 181 -32 190 -10 4 -23 14 -29 24 -14 28
15 47 80 54 30 3 76 14 101 25 50 22 59 38 59 111 0 40 -5 48 -58 100 -31 31
-76 71 -100 90 -47 38 -51 50 -21 77 18 16 20 28 18 99 -3 92 -14 129 -43 144
-12 6 -34 20 -51 31 -16 11 -39 24 -50 29 -11 5 -46 33 -78 64 -53 50 -63 55
-113 59 -30 3 -60 11 -67 19 -9 11 -11 339 -9 1425 l2 1411 81 6 c45 4 87 11
93 15 6 5 50 12 98 15 66 3 94 10 116 26 l30 21 4 212 c3 117 2 224 -2 238 -4
14 -3 65 2 115 11 109 1 140 -45 149 -30 7 -31 8 -13 21 11 8 36 17 55 20 20
3 59 10 86 15 28 6 77 15 110 21 32 5 64 14 69 19 6 6 28 10 50 10 23 0 54 7
70 15 15 8 34 15 40 15 23 0 76 65 76 93 0 29 1 30 71 27 39 -1 50 3 70 27 28
32 72 63 92 63 18 0 77 50 77 65 0 7 16 27 36 46 21 19 49 45 64 59 32 30 36
62 46 364 7 188 6 201 -13 240 -12 22 -27 55 -34 71 -7 17 -21 38 -31 48 -11
11 -18 33 -18 55 0 50 -38 92 -83 92 -18 0 -38 5 -44 11 -6 6 -46 13 -89 16
-44 3 -84 10 -91 15 -6 5 -42 13 -80 18 -37 4 -86 13 -108 19 -22 6 -55 11
-73 11 -18 0 -56 7 -84 16 -39 13 -73 16 -164 11 -63 -3 -116 -2 -119 3 -3 4
16 18 42 31 49 24 190 156 214 201 53 99 89 181 89 201 0 8 7 28 15 43 8 16
15 44 15 62 0 18 5 43 12 55 15 27 13 399 -2 427 -6 10 -10 38 -10 62 0 24 -7
56 -15 72 -8 15 -15 40 -15 55 0 14 -7 39 -15 55 -8 15 -15 36 -15 45 0 9 -7
29 -15 45 -8 15 -15 36 -15 46 0 10 -7 23 -15 30 -8 7 -15 21 -15 31 0 9 -7
24 -15 33 -8 8 -15 21 -15 28 0 8 -5 19 -11 25 -14 14 -35 50 -50 86 -6 15
-15 27 -20 27 -5 0 -9 6 -9 13 0 7 -13 27 -30 45 -16 18 -30 36 -30 40 0 4
-17 25 -36 47 -20 22 -63 70 -95 106 -32 36 -76 74 -96 85 -21 10 -44 25 -51
32 -7 6 -20 12 -28 12 -8 0 -14 3 -14 8 0 4 -24 18 -52 32 -29 13 -56 28 -59
32 -3 4 -33 11 -68 14 -38 4 -65 12 -68 21 -7 19 -173 19 -173 -1z m200 -59
c52 -9 95 -24 140 -50 36 -20 74 -41 85 -47 11 -6 34 -19 50 -30 17 -11 37
-23 45 -26 13 -5 52 -49 140 -157 14 -17 33 -39 43 -49 9 -10 17 -20 17 -23 0
-9 44 -70 53 -73 4 -2 7 -10 7 -17 0 -8 6 -20 13 -27 6 -7 22 -33 35 -58 12
-25 26 -52 31 -60 20 -36 41 -87 47 -113 3 -15 10 -30 15 -33 5 -3 9 -15 9
-27 0 -12 7 -35 15 -51 8 -15 15 -39 15 -53 0 -14 6 -39 14 -56 18 -38 23 -93
31 -292 8 -196 -9 -317 -62 -442 -7 -17 -13 -36 -13 -41 0 -28 -83 -145 -150
-213 -74 -74 -144 -117 -245 -152 -21 -8 -40 -18 -42 -24 -6 -18 40 -23 219
-22 113 1 182 -3 196 -10 12 -6 49 -14 84 -17 35 -4 82 -12 106 -20 23 -8 61
-14 83 -14 22 0 49 -4 59 -10 10 -5 52 -14 92 -20 40 -5 103 -15 141 -22 l67
-12 0 -37 c0 -25 8 -45 26 -64 14 -15 28 -43 31 -61 3 -19 17 -46 30 -61 28
-29 28 0 5 -420 l-7 -132 -52 -47 c-29 -25 -59 -57 -65 -72 -14 -28 -22 -33
-92 -57 -37 -13 -51 -25 -60 -46 -10 -27 -14 -29 -61 -29 -28 0 -57 6 -63 12
-17 17 -32 -6 -32 -52 0 -19 -8 -44 -18 -55 -24 -28 -152 -66 -291 -85 -35 -5
-68 -14 -75 -18 -6 -5 -35 -12 -65 -15 -29 -4 -58 -11 -65 -16 -7 -6 -41 -14
-76 -18 -61 -7 -65 -10 -65 -33 0 -22 5 -26 42 -31 23 -3 58 -14 77 -24 l36
-20 0 -77 c0 -68 -2 -77 -20 -83 -25 -8 -26 -32 -1 -59 17 -19 18 -36 13 -219
l-5 -198 -31 -13 c-17 -7 -72 -15 -123 -19 -50 -3 -101 -10 -112 -16 -11 -6
-41 -11 -68 -11 -26 0 -55 -5 -63 -10 -13 -8 -16 -182 -20 -1437 -3 -785 -3
-1439 0 -1452 8 -32 64 -61 118 -61 37 0 47 -5 85 -45 24 -25 49 -45 55 -45 7
0 12 -3 12 -8 0 -4 21 -19 47 -32 83 -43 84 -46 81 -141 -3 -79 -4 -83 -27
-89 -13 -3 -29 -13 -35 -23 -9 -15 -6 -22 17 -39 16 -11 44 -36 64 -54 19 -18
54 -48 78 -66 53 -41 64 -57 71 -111 l6 -43 -58 -16 c-33 -9 -77 -20 -99 -23
-21 -4 -52 -13 -68 -22 -27 -13 -28 -17 -21 -56 4 -29 17 -51 39 -72 l33 -30
-5 -132 c-5 -130 -6 -133 -28 -133 -46 0 -85 -13 -108 -36 -26 -26 -89 -49
-159 -58 -26 -3 -56 -10 -65 -15 -10 -6 -39 -13 -65 -16 -26 -3 -50 -10 -53
-16 -4 -5 -22 -9 -40 -9 -19 0 -54 -6 -77 -14 -24 -8 -63 -17 -88 -20 -24 -4
-49 -11 -55 -15 -5 -5 -34 -11 -64 -14 -30 -4 -59 -11 -65 -17 -5 -5 -25 -10
-43 -10 -18 0 -51 -7 -73 -16 -26 -10 -52 -14 -73 -10 -78 16 -100 18 -120 8
-12 -6 -44 -13 -71 -16 -27 -3 -54 -10 -60 -15 -6 -4 -35 -11 -65 -14 -29 -4
-58 -10 -65 -15 -6 -5 -35 -12 -65 -15 -29 -4 -58 -10 -65 -15 -6 -5 -35 -12
-65 -15 -29 -4 -58 -11 -65 -16 -6 -5 -40 -12 -76 -16 -57 -6 -68 -4 -92 14
-14 12 -31 21 -37 21 -6 0 -11 3 -11 8 0 4 -20 18 -45 32 -25 14 -45 28 -45
32 0 3 -10 10 -22 14 -12 3 -26 10 -32 15 -50 42 -61 49 -72 49 -7 0 -14 3
-16 8 -5 11 -66 52 -78 52 -5 0 -10 3 -10 8 0 6 -29 26 -89 59 -17 10 -33 11
-55 4 -42 -13 -132 -31 -181 -38 -37 -4 -49 1 -118 49 -43 29 -89 60 -102 68
-14 8 -85 55 -160 105 l-135 89 0 69 c0 67 1 69 51 130 86 104 124 149 134
161 6 6 28 33 50 61 40 50 58 71 114 135 17 19 31 38 31 42 0 4 23 31 51 59
28 28 48 56 46 63 -3 6 -22 20 -43 31 -22 11 -41 23 -44 26 -3 3 -27 19 -53
35 -27 16 -61 37 -75 46 -15 10 -33 21 -39 24 -17 8 -17 136 -1 152 7 7 30 12
53 12 22 1 58 7 80 15 22 8 55 15 72 15 20 0 41 8 54 21 18 18 20 29 16 92 -3
40 -10 356 -16 702 -6 347 -16 666 -21 710 -6 44 -10 235 -10 425 -1 434 -15
882 -29 908 -12 23 -60 42 -107 42 -18 0 -35 4 -39 9 -3 6 -27 13 -53 16 -26
3 -55 10 -64 15 -9 5 -36 12 -60 16 -24 3 -61 12 -83 20 l-40 15 1 195 c1 107
3 197 6 199 3 3 30 10 59 15 84 14 129 30 129 44 0 14 -30 26 -68 26 -22 0
-74 14 -172 46 -25 8 -55 14 -66 14 -12 0 -35 7 -50 15 -16 8 -43 15 -61 15
-17 0 -34 4 -38 9 -3 6 -27 13 -53 16 -26 4 -61 13 -79 21 -17 8 -40 14 -51
14 -11 0 -33 7 -48 15 -16 8 -41 15 -55 15 -15 0 -40 7 -55 15 -16 8 -41 15
-55 15 -14 0 -40 7 -57 16 -41 20 -143 20 -183 0 -18 -9 -40 -16 -49 -16 -27
0 -99 28 -116 45 -54 53 -124 85 -124 55 0 -5 -20 -10 -45 -10 -25 0 -45 5
-45 10 0 12 -47 13 -54 1 -3 -4 -28 -11 -55 -14 -72 -9 -111 -31 -111 -65 0
-15 -7 -36 -15 -46 -8 -11 -15 -29 -15 -41 0 -43 -63 -77 -167 -90 -29 -4 -55
-11 -59 -16 -3 -5 -20 -9 -38 -9 -19 0 -56 -6 -82 -14 -67 -20 -138 -35 -209
-47 -32 -5 -64 -14 -69 -19 -6 -6 -24 -10 -42 -10 -17 0 -54 -7 -80 -15 -27
-8 -70 -17 -96 -20 -26 -3 -50 -10 -53 -16 -4 -5 -23 -9 -43 -9 -20 0 -50 -7
-66 -15 -15 -8 -49 -15 -74 -15 -41 0 -49 4 -89 46 -23 25 -43 52 -43 59 0 8
-6 20 -12 27 -31 32 -52 128 -51 237 0 105 1 109 29 141 36 40 93 70 133 70
17 0 50 6 73 14 24 8 68 17 98 21 30 3 59 10 65 14 5 5 37 11 69 14 32 3 64
11 69 16 6 6 28 11 49 11 20 0 57 6 80 14 24 8 68 17 98 21 30 3 59 10 65 14
5 5 36 11 68 14 32 3 64 10 70 15 7 6 47 13 90 17 l78 7 67 -67 67 -67 59 5
c32 3 63 10 69 16 6 6 20 11 31 11 12 0 35 14 53 30 18 17 40 30 50 30 25 0
93 47 93 65 0 21 33 71 61 94 14 11 42 22 62 26 94 18 111 29 130 86 21 61 42
89 67 89 10 0 29 9 44 21 l26 20 0 159 0 159 40 23 c39 23 39 24 42 88 l3 64
75 14 c41 7 108 17 149 22 40 5 85 13 100 18 14 6 56 13 93 16 38 3 77 10 87
16 11 5 42 10 69 10 26 0 71 6 98 14 27 8 79 16 116 20 38 3 77 10 87 16 11 5
39 10 63 10 24 0 61 5 83 11 22 6 74 15 115 20 84 10 152 31 158 49 2 6 -3 30
-11 53 -8 23 -18 68 -22 99 -7 63 -13 56 70 88 11 4 54 13 95 19 41 6 90 14
108 17 29 6 37 2 61 -26 26 -32 30 -33 78 -27 50 6 102 32 153 77 14 12 45 38
70 58 82 68 90 78 90 120 0 44 10 52 64 52 22 0 40 8 55 24 13 14 38 26 55 28
28 3 31 6 31 38 l0 35 -56 0 c-73 0 -89 16 -89 87 0 45 -5 61 -31 97 -24 31
-29 45 -20 54 16 16 14 48 -4 61 -8 6 -27 36 -43 66 -26 49 -33 55 -64 58 -21
2 -44 13 -58 27 -21 23 -21 24 -4 52 10 15 28 37 39 48 11 11 31 38 44 60 56
93 118 181 150 213 l34 35 156 8 c111 6 176 6 225 -3 67 -11 69 -11 87 13 10
13 21 37 25 52 3 16 12 40 20 55 8 15 14 31 14 35 0 5 20 39 45 77 55 81 145
168 200 193 22 10 53 25 68 33 16 8 36 14 45 14 9 0 30 7 47 16 16 8 59 18 95
21 36 3 72 10 80 14 8 5 26 7 40 4 14 -3 59 -12 100 -18z"/>
<path d="M4491 7907 c-23 -23 -10 -87 19 -87 25 0 42 24 38 56 -3 30 -38 50
-57 31z"/>
<path d="M4648 7889 c-21 -12 -24 -49 -6 -67 21 -21 58 -14 68 14 13 32 13 30
-6 48 -18 18 -32 20 -56 5z"/>
<path d="M4510 7741 c0 -33 28 -51 80 -51 63 0 80 7 80 35 0 22 -2 23 -60 18
-41 -4 -60 -2 -60 6 0 6 -9 11 -20 11 -13 0 -20 -7 -20 -19z"/>
</g>
</svg>
