<?xml version="1.0" standalone="no"?>
<!DOCTYPE svg PUBLIC "-//W3C//DTD SVG 20010904//EN"
 "http://www.w3.org/TR/2001/REC-SVG-20010904/DTD/svg10.dtd">
<svg version="1.0" xmlns="http://www.w3.org/2000/svg"
 width="1031.000000pt" height="1033.000000pt" viewBox="0 0 1031.000000 1033.000000"
 preserveAspectRatio="xMidYMid meet">

<g transform="translate(0.000000,1033.000000) scale(0.100000,-0.100000)"
fill="#000000" stroke="none">
<path d="M0 5165 l0 -5165 5155 0 5155 0 0 5165 0 5165 -5155 0 -5155 0 0
-5165z m6582 5099 c102 -21 303 -138 392 -229 200 -205 349 -454 431 -722 65
-215 75 -283 75 -528 -1 -232 -10 -297 -69 -455 -72 -193 -201 -342 -365 -424
-50 -25 -109 -48 -131 -52 l-40 -8 35 -7 c75 -16 177 -20 234 -10 65 12 147 2
416 -49 85 -16 236 -43 334 -60 99 -17 185 -35 193 -41 7 -7 13 -31 13 -59 0
-35 5 -52 21 -66 28 -25 49 -67 49 -98 0 -14 9 -31 21 -40 22 -15 22 -16 14
-288 -10 -362 -6 -344 -82 -408 -36 -29 -63 -60 -63 -70 0 -27 -45 -58 -111
-78 -46 -13 -59 -22 -64 -41 -10 -37 -34 -50 -97 -51 -44 0 -59 4 -67 17 -14
27 -22 11 -28 -57 -9 -96 2 -91 -458 -189 -126 -28 -247 -53 -267 -56 -50 -9
-48 -22 5 -35 23 -6 67 -21 97 -33 l55 -23 3 -97 c3 -96 2 -97 -23 -107 -32
-12 -32 -34 1 -49 l26 -11 -8 -188 c-3 -103 -9 -216 -13 -252 l-6 -65 -35 -3
c-67 -7 -422 -60 -426 -65 -3 -2 -7 -744 -11 -1648 -6 -1519 -5 -1645 10
-1658 9 -7 50 -19 91 -26 77 -13 139 -48 151 -84 3 -9 51 -44 107 -77 l103
-60 3 -111 3 -111 -46 -7 c-26 -3 -45 -11 -43 -17 2 -6 62 -61 133 -122 l130
-111 3 -71 3 -71 -137 -31 c-74 -17 -138 -32 -140 -35 -2 -2 -1 -24 2 -49 5
-38 12 -48 45 -69 l39 -24 0 -162 0 -162 -37 -10 c-21 -6 -42 -11 -48 -11 -37
0 -87 -24 -95 -45 -7 -19 -21 -26 -67 -35 -32 -6 -141 -31 -243 -55 -712 -169
-671 -161 -810 -155 -39 2 -120 -12 -275 -49 -461 -108 -526 -123 -540 -118
-7 3 -133 85 -279 181 -147 97 -275 180 -286 186 -15 8 -52 4 -147 -15 -71
-14 -135 -28 -144 -30 -9 -3 -135 74 -302 185 l-287 190 0 78 0 77 131 160
c72 88 183 223 246 300 64 77 131 154 150 171 l35 31 -154 95 -153 96 -3 91
c-3 108 -21 95 181 136 l137 28 0 51 c1 28 -16 758 -37 1623 l-37 1571 -256
64 -255 63 0 239 0 240 110 26 c76 18 104 28 90 33 -11 4 -166 45 -345 91
-179 47 -386 102 -460 124 -74 21 -176 49 -227 62 l-92 23 -68 -20 c-106 -31
-162 -21 -243 45 -63 51 -92 62 -105 42 -8 -13 -76 -13 -110 0 -19 7 -50 5
-118 -10 -130 -29 -127 -28 -127 -60 0 -39 -39 -140 -64 -167 -21 -23 -22 -23
-656 -163 -96 -21 -254 -58 -350 -81 -228 -56 -248 -55 -310 6 -52 51 -101
134 -119 200 -54 204 -19 372 87 418 20 9 111 32 202 51 265 55 653 136 820
171 185 39 186 39 283 -65 l63 -68 92 19 c70 14 102 26 130 48 20 17 63 40 94
52 54 20 58 24 73 70 23 69 88 124 163 139 122 25 116 21 124 75 8 57 33 95
74 113 16 7 40 18 54 25 l25 13 3 186 2 186 45 27 45 26 0 74 0 74 38 9 c20 5
224 40 452 77 552 89 950 155 979 161 19 4 22 9 16 27 -4 12 -15 62 -26 111
-28 126 -24 133 82 162 46 13 131 29 188 36 98 11 104 11 117 -7 8 -10 14 -27
14 -37 0 -10 2 -18 4 -18 2 0 38 6 80 14 73 14 79 18 200 116 120 98 135 117
136 170 1 40 21 57 80 65 33 4 62 15 73 26 10 11 28 19 42 19 38 0 55 11 55
36 0 27 -29 47 -51 33 -26 -16 -67 -9 -97 16 -27 22 -30 32 -34 93 -3 57 -8
74 -31 101 -27 32 -36 84 -17 96 5 3 -6 27 -25 54 -19 26 -42 64 -50 84 -12
30 -20 36 -57 42 -59 10 -75 20 -81 52 -6 33 4 54 52 109 20 23 67 91 104 151
75 121 143 194 196 212 53 17 398 15 450 -4 l41 -14 13 32 c8 18 24 61 35 97
12 36 48 104 80 152 103 154 213 234 405 293 148 45 267 51 419 19z"/>
<path d="M5167 9038 c-13 -7 -16 -16 -11 -31 14 -46 44 -43 44 3 0 34 -9 42
-33 28z"/>
<path d="M5345 9027 c-25 -19 -16 -61 14 -65 40 -6 58 48 22 67 -13 7 -23 6
-36 -2z"/>
<path d="M5199 8851 c13 -12 31 -21 40 -22 38 -2 87 4 104 13 30 16 11 21 -27
7 -35 -13 -37 -12 -126 17 -8 3 -4 -4 9 -15z"/>
</g>
</svg>
